<?xml version="1.0" standalone="no"?>
<!DOCTYPE svg PUBLIC "-//W3C//DTD SVG 20010904//EN"
 "http://www.w3.org/TR/2001/REC-SVG-20010904/DTD/svg10.dtd">
<svg version="1.0" xmlns="http://www.w3.org/2000/svg"
 width="1280.000000pt" height="1280.000000pt" viewBox="0 0 1280.000000 1280.000000"
 preserveAspectRatio="xMidYMid meet">
<metadata>
Created by potrace 1.15, written by Peter Selinger 2001-2017
</metadata>
<g transform="translate(0.000000,1280.000000) scale(0.100000,-0.100000)"
fill="#ffffff" stroke="none">
<path d="M6555 12254 c-501 -22 -884 -68 -1283 -155 -1377 -301 -2493 -1063
-3283 -2239 -149 -222 -267 -429 -409 -715 -234 -474 -375 -848 -499 -1325
-155 -595 -219 -1146 -208 -1800 11 -696 106 -1257 317 -1874 244 -713 595
-1280 1110 -1796 398 -397 818 -695 1335 -946 835 -405 1870 -634 2997 -663
1000 -26 1841 75 2548 305 682 221 1314 561 1830 983 389 318 735 683 962
1016 128 187 254 415 244 440 -2 7 -71 48 -153 92 l-148 78 -557 3 -557 3 -63
-83 c-231 -305 -507 -559 -858 -793 -766 -510 -1546 -751 -2610 -805 -1113
-57 -2206 136 -3056 540 -1116 530 -1830 1511 -2048 2815 -139 833 -75 1746
179 2525 156 481 414 997 685 1374 263 366 616 714 983 970 216 151 554 337
811 446 465 197 977 319 1517 361 209 16 758 7 939 -15 564 -69 1040 -210
1505 -446 692 -350 1185 -817 1512 -1430 210 -395 338 -817 384 -1265 14 -143
14 -509 0 -650 -79 -765 -415 -1503 -930 -2047 -293 -309 -783 -625 -1063
-684 -159 -34 -292 0 -336 86 -48 93 -38 152 297 1700 110 509 317 1470 461
2135 143 666 263 1218 266 1228 5 16 -27 17 -575 17 l-580 0 -19 -27 c-69
-100 -79 -132 -144 -445 -34 -170 -66 -307 -69 -305 -4 1 -40 45 -80 97 -88
115 -276 310 -379 393 -362 293 -821 457 -1275 457 -610 0 -1309 -314 -1847
-828 -592 -568 -1081 -1518 -1222 -2375 -41 -247 -50 -367 -50 -642 1 -437 59
-769 200 -1155 47 -126 198 -432 269 -544 338 -534 829 -871 1425 -978 161
-29 429 -29 590 0 470 85 934 346 1368 769 59 56 107 103 108 103 0 0 7 -26
14 -58 26 -119 83 -289 117 -352 134 -246 377 -404 718 -466 125 -23 547 -27
690 -6 563 81 1023 289 1530 691 147 116 524 491 665 661 664 800 1010 1638
1081 2620 15 203 6 651 -15 840 -86 743 -321 1396 -724 2015 -107 164 -252
358 -375 500 -123 143 -394 408 -527 517 -797 650 -1801 1026 -2980 1118 -137
10 -609 19 -735 14z m-85 -3558 c328 -21 669 -234 874 -546 326 -494 340
-1360 36 -2187 -69 -186 -220 -491 -317 -638 -256 -388 -641 -721 -1001 -865
-186 -75 -274 -93 -457 -94 -138 -1 -172 2 -245 22 -306 83 -602 348 -754 673
-115 248 -166 513 -166 867 0 375 65 739 207 1156 165 487 382 855 688 1162
233 236 424 351 694 421 89 22 272 43 331 37 14 -2 63 -5 110 -8z"/>
</g>
</svg>
